<svg width="24" height="24" viewBox="0 0 24 24" fill="none" xmlns="http://www.w3.org/2000/svg">
<g id="Icon / chat">
<path id="&#240;&#159;&#148;&#185;Icon Color" fill-rule="evenodd" clip-rule="evenodd" d="M20 3H4C2.9 3 2.01 3.9 2.01 5L2 23L6 19H20C21.1 19 22 18.1 22 17V5C22 3.9 21.1 3 20 3ZM7 10H17C17.55 10 18 10.45 18 11C18 11.55 17.55 12 17 12H7C6.45 12 6 11.55 6 11C6 10.45 6.45 10 7 10ZM13 15H7C6.45 15 6 14.55 6 14C6 13.45 6.45 13 7 13H13C13.55 13 14 13.45 14 14C14 14.55 13.55 15 13 15ZM17 9H7C6.45 9 6 8.55 6 8C6 7.45 6.45 7 7 7H17C17.55 7 18 7.45 18 8C18 8.55 17.55 9 17 9Z" fill="#8B96A5"/>
</g>
</svg>
