<svg width="24" height="24" viewBox="0 0 24 24" fill="none" xmlns="http://www.w3.org/2000/svg">
<g id="Icon / favorite_border">
<path id="&#240;&#159;&#148;&#185;Icon Color" fill-rule="evenodd" clip-rule="evenodd" d="M19.6602 3.99004C17.0202 2.19004 13.7602 3.03004 12.0002 5.09004C10.2402 3.03004 6.98021 2.18004 4.34021 3.99004C2.94021 4.95004 2.06021 6.57004 2.00021 8.28004C1.86021 12.16 5.30021 15.27 10.5502 20.04L10.6502 20.13C11.4102 20.82 12.5802 20.82 13.3402 20.12L13.4502 20.02C18.7002 15.26 22.1302 12.15 22.0002 8.27004C21.9402 6.57004 21.0602 4.95004 19.6602 3.99004ZM12.1002 18.55L12.0002 18.65L11.9002 18.55C7.14021 14.24 4.00021 11.39 4.00021 8.50004C4.00021 6.50004 5.50021 5.00004 7.50021 5.00004C9.04021 5.00004 10.5402 5.99004 11.0702 7.36004H12.9402C13.4602 5.99004 14.9602 5.00004 16.5002 5.00004C18.5002 5.00004 20.0002 6.50004 20.0002 8.50004C20.0002 11.39 16.8602 14.24 12.1002 18.55Z" fill="#0D6EFD"/>
</g>
</svg>
